HIERARCHY
ROOT hip
{
	OFFSET 0.000000 0.000000 0.000000 
	CHANNELS 6 Xposition Yposition Zposition Xrotation Zrotation Yrotation
	JOINT abdomen
	{
		OFFSET 0.000000 3.402643 0.000000 
		CHANNELS 3 Xrotation Zrotation Yrotation
		JOINT chest
		{
			OFFSET 0.000000 8.438565 -0.680529 
			CHANNELS 3 Xrotation Zrotation Yrotation
			JOINT neck
			{
				OFFSET 0.000000 10.207942 -0.272212 
				CHANNELS 3 Xrotation Zrotation Yrotation
				JOINT head
				{
					OFFSET 0.000000 3.130431 0.000000 
					CHANNELS 3 Xrotation Zrotation Yrotation
					End Site
					{
						OFFSET 0.000000 3.130435 0.000000 
					}
				}
			}
			JOINT lCollar
			{
				OFFSET 3.470700 6.669187 -0.816635 
				CHANNELS 3 Yrotation Zrotation Xrotation
				JOINT lShldr
				{
					OFFSET 3.198488 0.000000 0.000000 
					CHANNELS 3 Zrotation Yrotation Xrotation
					JOINT lForeArm
					{
						OFFSET 10.139888 0.000000 0.000000 
						CHANNELS 3 Yrotation Zrotation Xrotation
						JOINT lHand
						{
							OFFSET 8.370511 0.000000 0.000000 
							CHANNELS 3 Zrotation Yrotation Xrotation
							End Site
							{
								OFFSET 4.083176 0.000000 0.000000 
							}
						}
					}
				}
			}
			JOINT rCollar
			{
				OFFSET -3.470700 6.669187 -0.816635 
				CHANNELS 3 Yrotation Zrotation Xrotation
				JOINT rShldr
				{
					OFFSET -3.198488 0.000000 0.000000 
					CHANNELS 3 Zrotation Yrotation Xrotation
					JOINT rForeArm
					{
						OFFSET -10.139888 0.000000 0.000000 
						CHANNELS 3 Yrotation Zrotation Xrotation
						JOINT rHand
						{
							OFFSET -8.370511 0.000000 0.000000 
							CHANNELS 3 Zrotation Yrotation Xrotation
							End Site
							{
								OFFSET -4.083176 0.000000 0.000000 
							}
						}
					}
				}
			}
		}
	}
	JOINT lThigh
	{
		OFFSET 5.308129 -1.633274 1.361059 
		CHANNELS 3 Xrotation Zrotation Yrotation
		JOINT lShin
		{
			OFFSET -2.041588 -20.007561 0.000000 
			CHANNELS 3 Xrotation Zrotation Yrotation
			JOINT lFoot
			{
				OFFSET 0.000000 -19.190928 -1.224953 
				CHANNELS 3 Xrotation Yrotation Zrotation
				End Site
				{
					OFFSET 0.000000 -2.449906 4.627600 
				}
			}
		}
	}
	JOINT rThigh
	{
		OFFSET -5.308129 -1.633274 1.361059 
		CHANNELS 3 Xrotation Zrotation Yrotation
		JOINT rShin
		{
			OFFSET 2.041588 -20.007561 0.000000 
			CHANNELS 3 Xrotation Zrotation Yrotation
			JOINT rFoot
			{
				OFFSET 0.000000 -19.190928 -1.224953 
				CHANNELS 3 Xrotation Yrotation Zrotation
				End Site
				{
					OFFSET 0.000000 -2.449906 4.627600 
				}
			}
		}
	}
}
MOTION
Frames: 11
Frame Time: 0.016667
-116.134453 53.695545 21.211483 -5.898438 -10.595703 83.289215 0.000000 0.000000 0.000000 3.593750 -4.111328 4.755859 18.056641 -10.332030 -55.029297 8.847656 -1.972656 60.702785 5.126953 -13.466796 4.287109 -43.105469 23.066406 30.472574 -128.750000 14.218751 65.651894 -33.193356 -1.933594 -5.547204 4.931641 22.568361 4.107580 42.246094 -24.687500 18.251955 69.130859 -7.070312 90.136719 1.337891 -6.201172 -78.458084 -16.987547 5.661980 5.401682 26.049513 -3.720416 -67.880356 87.316208 109.882774 -89.549797 -14.780538 -13.157141 -14.805379 39.735641 7.772498 -45.904537 -14.056373 24.291159 26.613962 
-116.041183 53.773846 21.095085 -6.162109 -11.093751 85.068359 0.000000 0.000000 0.000000 3.574219 -4.062500 4.012980 17.646484 -10.166015 -55.810543 9.257813 -2.314453 60.526951 4.599609 -13.710937 4.277344 -43.007813 20.624998 30.302732 -128.066406 14.306642 65.397972 -34.804691 -0.781250 -4.580078 4.248047 22.724609 4.062500 42.529297 -24.892578 18.134766 68.193359 -6.865235 90.118355 1.181641 -6.113282 -78.614326 -17.205301 5.643889 5.115601 25.366827 -3.741205 -69.039444 88.143539 109.693825 -89.806320 -16.513748 -14.179789 -15.815724 41.132889 7.831045 -46.114574 -11.891149 24.813114 25.780144 
-115.947891 53.852001 20.978544 -6.464844 -11.582031 86.855469 0.000000 0.000000 0.000000 3.574218 -4.023438 3.242188 17.246092 -10.019531 -56.572266 9.677734 -2.666016 60.361324 4.091796 -13.974609 4.257813 -42.900391 18.183594 30.126949 -127.373039 14.394531 65.124519 -36.396484 0.390625 -3.642514 3.574219 22.861330 4.029409 42.822266 -25.107424 18.027342 67.275391 -6.660155 90.107422 1.015625 -6.015607 -78.760757 -17.431902 5.654708 4.845715 24.704494 -3.796403 -70.235115 89.025940 109.495583 -90.141212 -18.222536 -15.224434 -16.755495 42.544315 7.922094 -46.328953 -9.720122 25.257168 24.892445 
-115.730354 53.999222 20.870272 -7.314453 -11.357421 88.201202 0.000000 0.000000 0.000000 4.101564 -3.671875 3.104843 17.294924 -9.433595 -57.355114 9.648438 -2.822266 60.517094 3.876953 -13.349610 4.679989 -43.115234 14.824219 30.458982 -126.376953 14.580077 64.687508 -38.037109 1.777344 -2.812197 3.115234 24.023436 4.550781 42.353519 -25.527342 18.169621 66.650391 -6.435547 89.659302 1.386719 -5.312500 -79.209885 -16.618158 6.063042 4.777717 23.679623 -3.577012 -71.159882 89.940369 109.224548 -90.726768 -19.821388 -15.455032 -16.923454 43.797157 7.779470 -47.117138 -8.165931 26.378212 22.403669 
-115.512672 54.146435 20.761856 -8.154297 -11.123049 89.541016 0.000000 0.000000 0.000000 4.628906 -3.300781 2.949219 17.363281 -8.837891 -58.126503 9.619140 -2.978516 60.693363 3.662110 -12.724610 5.119338 -43.349606 11.484375 30.802725 -125.380852 14.755858 64.235802 -39.648438 3.183594 -2.011719 2.626953 24.990232 5.087891 41.865234 -25.927734 18.325808 66.015625 -6.201172 89.228531 1.757813 -4.609375 -79.628906 -15.793468 6.490580 4.683568 22.663427 -3.434864 -72.102615 90.805206 108.962967 -91.231697 -21.401955 -15.677957 -17.037951 45.025047 7.629504 -47.948036 -6.519835 27.448503 19.901720 
-115.240662 54.283566 20.655678 -8.984375 -11.035156 91.376953 0.000000 0.000000 0.000000 5.019531 -2.822266 2.509765 17.441406 -8.183594 -59.112720 9.697266 -3.164063 60.868603 3.056641 -12.050782 5.392663 -43.242188 8.105469 31.475988 -124.599602 14.951171 63.552166 -41.054688 3.916016 -2.109375 1.923828 24.990234 5.474390 41.210938 -26.572266 18.779297 65.703117 -5.996094 88.769531 2.382812 -2.773437 -79.697266 -15.206738 6.792599 4.411447 21.616924 -3.146992 -73.314011 91.466095 108.652802 -91.567848 -23.232107 -15.741952 -16.750097 45.711342 7.682984 -49.778625 -4.912828 29.522572 17.482084 
-114.968796 54.420559 20.549368 -9.804688 -10.917969 93.203125 0.000000 0.000000 0.000000 5.400392 -2.333985 2.079680 17.519533 -7.519532 -60.079411 9.794922 -3.330078 61.054684 2.451172 -11.367188 5.675752 -43.154297 4.755859 32.139481 -123.837883 15.146484 62.858776 -42.460938 4.638672 -2.216007 1.181641 24.990232 5.894311 40.527344 -27.187502 19.233820 65.390625 -5.800781 88.292007 2.978516 -0.957031 -79.736488 -14.609254 7.099787 4.162463 20.563705 -2.872471 -74.554138 92.133026 108.328331 -91.934181 -25.034370 -15.785761 -16.471640 46.404507 7.789405 -51.642311 -3.151807 31.519339 14.969874 
-114.592140 54.480503 20.449354 -10.361329 -10.849610 95.224609 0.000000 0.000000 0.000000 5.654296 -1.933594 1.240234 17.666016 -6.982422 -60.938683 9.697266 -3.300781 61.123047 1.562500 -10.869141 5.849610 -42.529293 1.914063 32.988609 -123.691406 15.390624 62.148438 -42.910156 4.296875 -3.124268 0.234375 24.990232 6.132813 40.205078 -27.792969 19.790367 65.068359 -5.625000 88.164063 3.349609 0.947266 -79.111328 -14.116590 7.311887 3.950262 19.753235 -2.714160 -76.059830 -87.196907 71.740562 87.701416 -26.440933 -15.825505 -16.022373 46.072723 8.102380 -54.057663 -1.564995 33.935688 13.443202 
-114.215485 54.540318 20.349482 -10.937499 -10.751953 97.254036 0.000000 0.000000 0.000000 5.898438 -1.523438 0.409897 17.792969 -6.455078 -61.807735 9.580079 -3.261719 61.181084 0.644531 -10.371094 6.036914 -41.943359 -0.927734 33.808437 -123.544930 15.644531 61.416016 -43.369141 3.935547 -4.013046 -0.732422 24.990234 6.386719 39.873047 -28.369141 20.361328 64.765625 -5.458984 88.027344 3.730469 2.841765 -78.466187 -13.602955 7.558307 3.748692 18.953106 -2.614748 -77.557693 -86.413307 71.832321 87.200310 -27.867010 -15.855418 -15.591760 45.711838 8.375973 -56.456730 0.170552 36.305847 11.814237 
-113.755333 54.504456 20.209692 -11.376953 -10.693359 98.953270 0.000000 0.000000 0.000000 6.074218 -1.103516 -0.517578 17.802732 -6.035156 -62.353519 9.550780 -3.242188 61.152584 -0.253906 -9.902344 6.152343 -40.986324 -3.037110 34.843235 -123.808601 15.966799 60.849609 -42.128906 2.919922 -3.945312 -1.669922 24.990232 6.548609 39.843746 -28.837889 20.839844 64.482422 -5.322266 88.272385 3.945313 3.867188 -78.378242 -13.300879 7.734531 3.619862 18.710142 -2.591342 -78.933289 -86.222221 71.544716 87.195419 -29.228432 -15.761809 -15.065047 45.343487 8.662892 -58.762978 2.164935 38.967094 10.876106 
-113.295197 54.468601 20.070040 -11.835938 -10.625000 100.662262 0.000000 0.000000 0.000000 6.240234 -0.683594 -1.445429 17.783205 -5.605469 -62.881809 9.531250 -3.222656 61.103516 -1.152344 -9.433594 6.290664 -40.078125 -5.166016 35.849613 -124.042969 16.289064 60.292969 -40.908207 1.884766 -3.886719 -2.587891 24.990232 6.704859 39.814453 -29.287109 21.313585 64.199219 -5.195313 88.525391 4.150391 4.892578 -78.299950 -12.992147 7.925712 3.512378 18.454771 -2.598278 -80.272888 -85.960922 71.238831 87.195473 -30.560417 -15.659078 -14.580051 44.987682 8.888494 -61.059738 4.333227 41.606052 9.763927 
